<svg width="261" height="288" viewBox="0 0 261 288" fill="none" xmlns="http://www.w3.org/2000/svg">
<path d="M156.777 0H0.642578L35.4879 54.1007C36.024 56.7889 40.8488 57.685 43.1941 57.797H148.065C154.766 58.6035 160.015 59.9252 161.802 60.4852C184.318 66.937 189.053 87.3676 188.606 96.7764C189.5 102.377 188.606 116.132 177.885 126.347C167.163 136.562 149.741 139.116 142.369 139.116H90.7714C120.256 184.704 180.096 276.955 183.581 281.256C187.065 285.557 189.947 286.185 190.952 285.961H260.643L192.627 186.16V183.808C238.562 161.298 257.627 127.019 251.261 79.3029C244.895 31.5867 212.884 6.12304 156.777 0Z" fill="black"/>
<circle cx="36.432" cy="250.608" r="36.432" fill="black"/>
</svg>
