<svg width="434" height="562" viewBox="0 0 434 562" fill="none" xmlns="http://www.w3.org/2000/svg">
<rect width="434" height="562" fill="black"/>
<path d="M243.134 138H87L121.845 192.101C122.381 194.789 127.206 195.685 129.552 195.797H234.423C241.124 196.603 246.373 197.925 248.16 198.485C270.675 204.937 275.411 225.368 274.964 234.776C275.857 240.377 274.964 254.132 264.242 264.347C253.521 274.562 236.098 277.116 228.727 277.116H177.129C206.613 322.704 266.454 414.955 269.938 419.256C273.423 423.557 276.304 424.185 277.309 423.961H347L278.985 324.16V321.808C324.919 299.298 343.985 265.019 337.619 217.303C331.253 169.587 299.241 144.123 243.134 138Z" fill="white"/>
<circle cx="122.789" cy="388.608" r="36.432" fill="white"/>
</svg>
